# Blender 3.4.1
# www.blender.org
mtllib real_dice.mtl
o Dado.obj
v 1.377723 1.377723 -1.377723
v 1.377723 -1.377723 -1.377723
v -1.377723 1.377723 -1.377723
v -1.377723 -1.377723 -1.377723
v -1.377723 1.377723 1.377723
v -1.377723 -1.377723 1.377723
v 1.377723 1.377723 1.377723
v 1.377723 -1.377723 1.377723
vn -0.0000 -0.0000 -1.0000
vn -1.0000 -0.0000 -0.0000
vn -0.0000 -0.0000 1.0000
vn 1.0000 -0.0000 -0.0000
vn -0.0000 -1.0000 -0.0000
vn -0.0000 1.0000 -0.0000
vt 0.011675 0.674450
vt 0.988325 0.341117
vt 0.511675 0.325550
vt 0.011675 0.992216
vt 0.988325 0.658883
vt 0.011675 0.007784
vt 0.488325 0.674450
vt 0.511675 0.674450
vt 0.988325 0.325550
vt 0.488325 0.992216
vt 0.511675 0.992216
vt 0.488325 0.007784
vt 0.988325 0.674450
vt 0.011675 0.341117
vt 0.988325 0.007784
vt 0.988325 0.992216
vt 0.011675 0.658883
vt 0.488325 0.325550
vt 0.488325 0.341117
vt 0.511675 0.341117
vt 0.511675 0.007784
vt 0.488325 0.658883
vt 0.511675 0.658883
vt 0.011675 0.325550
s 0
usemtl Mat
f 3/7/1 1/1/1 2/4/1 4/10/1
f 5/13/2 3/8/2 4/11/2 6/16/2
f 7/19/3 5/14/3 6/17/3 8/22/3
f 1/2/4 7/20/4 8/23/4 2/5/4
f 4/12/5 2/6/5 8/24/5 6/18/5
f 5/15/6 7/21/6 1/3/6 3/9/6
